<svg width="200" height="200" viewBox="0 0 200 200" fill="none" xmlns="http://www.w3.org/2000/svg">
<path d="M79.8827 30.6193C82.0987 28.6076 87.5003 23.8907 91.863 20.0061C96.2258 16.1909 99.9654 13 100.173 13C100.381 13 105.921 17.5782 112.5 23.197C120.325 29.8562 124.411 33.8102 124.203 34.5039C124.065 35.0588 119.079 43.7991 113.123 53.9267C107.167 64.0543 101.835 72.9333 101.281 73.6964C100.796 74.4594 100.173 74.945 99.9654 74.7369C99.8269 74.5288 94.2868 65.3723 75.7969 34.157L79.8827 30.6193Z" fill="#0F0F0F"/>
<path d="M58.4842 57.8806C58.415 50.1115 58.6227 43.5216 58.969 43.3135C59.3152 43.036 61.3928 42.8279 67.6253 42.8279L67.9716 69.5343L78.0129 69.8812V114.276L71.4341 114.623L71.0879 170.464H93.2481V147.919L100.173 140.983L107.098 147.919V170.464H128.566V114.276H122.333V69.8812H132.721V42.8279H141.724V74.0432H134.798V155.897H140.685C146.225 155.897 146.571 155.827 146.987 154.37C147.194 153.469 147.264 140.705 146.917 99.0154H152.111L152.457 57.0482L163.191 56.7014V99.0154L167 99.3622V163.874L152.111 169.284C143.94 172.267 129.743 177.4 120.602 180.661C111.461 183.921 102.874 186.765 101.558 186.973C99.7576 187.181 96.0873 186.21 87.3618 183.089C80.9214 180.799 68.2486 176.221 59.3152 173.03C50.3819 169.77 40.7561 166.51 33 164.221V99.0154H37.8475V56.7014L48.5814 57.0482L48.2351 99.0154H50.6589C52.9442 99.0154 53.0827 99.1541 53.3597 101.582C53.4982 103.039 53.7059 115.802 53.7059 129.884C53.7752 143.965 53.9829 155.758 54.1907 156.035C54.3292 156.382 56.9607 156.59 65.5478 156.59L65.7556 144.659C65.8248 138.069 65.8248 119.479 65.5478 74.0432H62.4315C60.2848 74.0432 59.1767 73.6964 58.969 73.0027C58.7612 72.4477 58.5535 65.5804 58.4842 57.8806Z" fill="#0F0F0F"/>
</svg>
